HIERARCHY
ROOT Model
{
	OFFSET 0 0 0
	CHANNELS 6 Xposition Yposition Zposition Zrotation Xrotation Yrotation
	JOINT Model1
	{
		OFFSET 0 -2.25479 2.99384
		CHANNELS 3 Zrotation Xrotation Yrotation
		JOINT Model2
		{
			OFFSET 12.111 0 0
			CHANNELS 3 Zrotation Xrotation Yrotation
			JOINT Model3
			{
				OFFSET 11.5502 0 0
				CHANNELS 3 Zrotation Xrotation Yrotation
				JOINT Model4
				{
					OFFSET 11.781 0 0
					CHANNELS 3 Zrotation Xrotation Yrotation
					JOINT Model5
					{
						OFFSET 20.0601 0 0
						CHANNELS 3 Zrotation Xrotation Yrotation
						JOINT Model6
						{
							OFFSET 11.1962 0 0
							CHANNELS 3 Zrotation Xrotation Yrotation
							End Site
							{
								OFFSET 0 0 0
							}
						}
					}
					JOINT Model7
					{
						OFFSET 10.8223 0.417534 3.51114
						CHANNELS 3 Zrotation Xrotation Yrotation
						JOINT Model8
						{
							OFFSET -6.07943 0 0
							CHANNELS 3 Zrotation Xrotation Yrotation
							JOINT Model9
							{
								OFFSET -0.277416 10.39 -0.051239
								CHANNELS 3 Zrotation Xrotation Yrotation
								JOINT Model10
								{
									OFFSET -3.4391 -0.282043 1.86679
									CHANNELS 3 Zrotation Xrotation Yrotation
									JOINT Model11
									{
										OFFSET 13.0269 0 0
										CHANNELS 3 Zrotation Xrotation Yrotation
										JOINT Model12
										{
											OFFSET 10.8866 0 0
											CHANNELS 3 Zrotation Xrotation Yrotation
											JOINT Model13
											{
												OFFSET 16.7317 0 0
												CHANNELS 3 Zrotation Xrotation Yrotation
												JOINT Model14
												{
													OFFSET 11.8292 0 0
													CHANNELS 3 Zrotation Xrotation Yrotation
													JOINT Model15
													{
														OFFSET 4.82751 -3.73566 -0.836517
														CHANNELS 3 Zrotation Xrotation Yrotation
														JOINT Model16
														{
															OFFSET 3.75311 -0.0582886 -0.0186462
															CHANNELS 3 Zrotation Xrotation Yrotation
															JOINT Model17
															{
																OFFSET 2.88688 0.0192337 0.014801
																CHANNELS 3 Zrotation Xrotation Yrotation
																End Site
																{
																	OFFSET 0 0 0
																}
															}
														}
													}
													JOINT Model18
													{
														OFFSET 9.72197 -3.06458 0.23877
														CHANNELS 3 Zrotation Xrotation Yrotation
														JOINT Model19
														{
															OFFSET 4.61131 0 0
															CHANNELS 3 Zrotation Xrotation Yrotation
															JOINT Model20
															{
																OFFSET 2.8969 -7.62939e-006 0
																CHANNELS 3 Zrotation Xrotation Yrotation
																End Site
																{
																	OFFSET 0 0 0
																}
															}
														}
													}
													JOINT Model21
													{
														OFFSET 9.54431 -0.745064 0.588928
														CHANNELS 3 Zrotation Xrotation Yrotation
														JOINT Model22
														{
															OFFSET 5.33978 0 0
															CHANNELS 3 Zrotation Xrotation Yrotation
															JOINT Model23
															{
																OFFSET 3.03619 7.62939e-006 0
																CHANNELS 3 Zrotation Xrotation Yrotation
																End Site
																{
																	OFFSET 0 0 0
																}
															}
														}
													}
													JOINT Model24
													{
														OFFSET 9.47759 1.51286 0.485107
														CHANNELS 3 Zrotation Xrotation Yrotation
														JOINT Model25
														{
															OFFSET 4.96136 7.62939e-006 0
															CHANNELS 3 Zrotation Xrotation Yrotation
															JOINT Model26
															{
																OFFSET 2.51966 0 0
																CHANNELS 3 Zrotation Xrotation Yrotation
																End Site
																{
																	OFFSET 0 0 0
																}
															}
														}
													}
													JOINT Model27
													{
														OFFSET 9.34247 3.34117 -0.239288
														CHANNELS 3 Zrotation Xrotation Yrotation
														JOINT Model28
														{
															OFFSET 3.2826 2.28882e-005 0
															CHANNELS 3 Zrotation Xrotation Yrotation
															JOINT Model29
															{
																OFFSET 2.1292 0 0
																CHANNELS 3 Zrotation Xrotation Yrotation
																End Site
																{
																	OFFSET 0 0 0
																}
															}
														}
													}
												}
											}
										}
									}
								}
							}
						}
					}
					JOINT Model30
					{
						OFFSET 10.8223 0.4179 -3.51108
						CHANNELS 3 Zrotation Xrotation Yrotation
						JOINT Model31
						{
							OFFSET 6.07943 0 0
							CHANNELS 3 Zrotation Xrotation Yrotation
							JOINT Model32
							{
								OFFSET 0.277416 -10.39 0.051239
								CHANNELS 3 Zrotation Xrotation Yrotation
								JOINT Model33
								{
									OFFSET 3.4391 0.282043 -1.86679
									CHANNELS 3 Zrotation Xrotation Yrotation
									JOINT Model34
									{
										OFFSET -13.0269 0 0
										CHANNELS 3 Zrotation Xrotation Yrotation
										JOINT Model35
										{
											OFFSET -10.8866 0 0
											CHANNELS 3 Zrotation Xrotation Yrotation
											JOINT Model36
											{
												OFFSET -16.7317 0 0
												CHANNELS 3 Zrotation Xrotation Yrotation
												JOINT Model37
												{
													OFFSET -11.8292 0 0
													CHANNELS 3 Zrotation Xrotation Yrotation
													JOINT Model38
													{
														OFFSET -4.82751 3.73566 0.836517
														CHANNELS 3 Zrotation Xrotation Yrotation
														JOINT Model39
														{
															OFFSET -3.75311 0.0582886 0.0186462
															CHANNELS 3 Zrotation Xrotation Yrotation
															JOINT Model40
															{
																OFFSET -2.88688 -0.0192337 -0.014801
																CHANNELS 3 Zrotation Xrotation Yrotation
																End Site
																{
																	OFFSET 0 0 0
																}
															}
														}
													}
													JOINT Model41
													{
														OFFSET -9.72197 3.06459 -0.23877
														CHANNELS 3 Zrotation Xrotation Yrotation
														JOINT Model42
														{
															OFFSET -4.6113 0 0
															CHANNELS 3 Zrotation Xrotation Yrotation
															JOINT Model43
															{
																OFFSET -2.8969 0 0
																CHANNELS 3 Zrotation Xrotation Yrotation
																End Site
																{
																	OFFSET 0 0 0
																}
															}
														}
													}
													JOINT Model44
													{
														OFFSET -9.5443 0.745064 -0.588928
														CHANNELS 3 Zrotation Xrotation Yrotation
														JOINT Model45
														{
															OFFSET -5.33978 0 0
															CHANNELS 3 Zrotation Xrotation Yrotation
															JOINT Model46
															{
																OFFSET -3.03619 -1.52588e-005 0
																CHANNELS 3 Zrotation Xrotation Yrotation
																End Site
																{
																	OFFSET 0 0 0
																}
															}
														}
													}
													JOINT Model47
													{
														OFFSET -9.47759 -1.51286 -0.485107
														CHANNELS 3 Zrotation Xrotation Yrotation
														JOINT Model48
														{
															OFFSET -4.96136 -1.52588e-005 0
															CHANNELS 3 Zrotation Xrotation Yrotation
															JOINT Model49
															{
																OFFSET -2.51966 0 0
																CHANNELS 3 Zrotation Xrotation Yrotation
																End Site
																{
																	OFFSET 0 0 0
																}
															}
														}
													}
													JOINT Model50
													{
														OFFSET -9.34246 -3.34118 0.239288
														CHANNELS 3 Zrotation Xrotation Yrotation
														JOINT Model51
														{
															OFFSET -3.2826 -2.28882e-005 0
															CHANNELS 3 Zrotation Xrotation Yrotation
															JOINT Model52
															{
																OFFSET -2.1292 0 0
																CHANNELS 3 Zrotation Xrotation Yrotation
																End Site
																{
																	OFFSET 0 0 0
																}
															}
														}
													}
												}
											}
										}
									}
								}
							}
						}
					}
				}
			}
		}
	}
	JOINT Model53
	{
		OFFSET 4.38026 -2.14632 -1.11517
		CHANNELS 3 Zrotation Xrotation Yrotation
		JOINT Model54
		{
			OFFSET 0 0 4.94998
			CHANNELS 3 Zrotation Xrotation Yrotation
			JOINT Model55
			{
				OFFSET 18.5642 0 0
				CHANNELS 3 Zrotation Xrotation Yrotation
				JOINT Model56
				{
					OFFSET 21.2884 0 0
					CHANNELS 3 Zrotation Xrotation Yrotation
					JOINT Model57
					{
						OFFSET 30.261 0 0
						CHANNELS 3 Zrotation Xrotation Yrotation
						JOINT Model58
						{
							OFFSET 11.7259 0 0
							CHANNELS 3 Zrotation Xrotation Yrotation
							JOINT Model59
							{
								OFFSET 10.682 0 0
								CHANNELS 3 Zrotation Xrotation Yrotation
								End Site
								{
									OFFSET 0 0 0
								}
							}
						}
					}
				}
			}
		}
	}
	JOINT Model60
	{
		OFFSET -4.38026 -2.14632 -1.11517
		CHANNELS 3 Zrotation Xrotation Yrotation
		JOINT Model61
		{
			OFFSET 0 0 -4.94998
			CHANNELS 3 Zrotation Xrotation Yrotation
			JOINT Model62
			{
				OFFSET -18.5642 0 0
				CHANNELS 3 Zrotation Xrotation Yrotation
				JOINT Model63
				{
					OFFSET -21.2884 0 0
					CHANNELS 3 Zrotation Xrotation Yrotation
					JOINT Model64
					{
						OFFSET -30.261 0 0
						CHANNELS 3 Zrotation Xrotation Yrotation
						JOINT Model65
						{
							OFFSET -11.7259 0 0
							CHANNELS 3 Zrotation Xrotation Yrotation
							JOINT Model66
							{
								OFFSET -10.682 0 0
								CHANNELS 3 Zrotation Xrotation Yrotation
								End Site
								{
									OFFSET 0 0 0
								}
							}
						}
					}
				}
			}
		}
	}
}
MOTION
Frames: 4
Frame Time: 0.033333
56.7677 162.253 -11.572 103.83 6.33241 86.4501 -180 4.29621e-031 -90 0.971357 0.629018 -0.749121 1.95102 1.24475 -1.50893 1.95102 1.24519 -1.50895 70.7446 -3.02195 16.4391 -95.305 -5.02084 -4.69898 120.092 75.5343 58.4939 -26.1713 -13.8994 -3.00434 -167.277 84.4999 48.8109 169.111 16.5851 5.31378 -1.26668e-005 46.4062 4.63387e-005 -103.878 -1.53583 0.591451 -5.85312e-008 -2.48524 -2.84108e-007 14.8115 2.08535 15.9419 -72.0648 39.0385 39.3397 33.3638 2.10362 14.835 0.588947 0.308273 6.35287 -99.6409 81.413 100.35 -0.018141 2.77389e-005 -0.117315 -0.124139 0.00241106 -0.799296 -79.8382 79.5773 80.5374 -0.000225805 -0.000220965 2.21901e-005 -0.000956265 0.000122837 -2.73266e-005 -66.7416 80.4058 67.2171 -0.00043716 1.59048e-005 -2.7322e-005 -0.000136641 -0.000109347 -5.46432e-005 -6.42159 81.2158 8.01779 -0.000218586 1.68714e-005 0.000212148 0.000901557 -0.000184852 -0.000218556 -59.9282 75.5373 58.5147 -20.0519 -16.4069 -4.65266 -167.277 84.4999 48.8109 -147.434 13.536 14.9486 -1.89783e-005 35.11 4.50969e-005 -100.376 17.1567 0.627352 -1.09699e-005 25.4834 5.61654e-006 9.16544 4.04266 47.5296 -72.0648 39.0385 39.3397 33.3638 2.10361 14.835 0.588946 0.308273 6.35287 -99.6409 81.413 100.35 -0.0181409 3.00824e-005 -0.117315 -0.124139 0.00241114 -0.799296 -79.8382 79.5773 80.5374 -0.000260646 -0.000218562 2.35683e-005 -0.000956226 0.000123002 -2.73236e-005 -66.7416 80.4058 67.2171 -0.000437132 1.48855e-005 -2.73229e-005 -0.000136604 -0.000109277 -5.46445e-005 -6.42159 81.2158 8.01779 -0.000218567 1.95829e-005 0.000212294 0.000901583 -0.00019124 -0.00021857 0.000811311 0.56661 89.91 -25.2157 -29.9742 -43.1009 -9.93404e-006 -24.9716 -2.25427e-006 70.0155 20.9732 -0.00871133 7.09351e-007 31.345 8.18304e-007 -67.6007 28.5047 -16.783 -35.4947 5.02291e-007 1.3666e-007 -180 -0.566579 -90.09 -22.8397 -17.1914 -27.4133 -4.29481e-006 -11.6983 -4.97701e-007 70.0931 10.7278 4.05457 6.10579e-007 16.015 1.00737e-006 -81.3257 17 -8.19249 -35.4947 3.61019e-008 -1.0502e-007 
56.6973 162.272 -11.511 103.569 6.25462 86.7475 -180 4.29621e-031 -90 0.951025 0.629921 -0.708563 1.90993 1.24751 -1.42761 1.90993 1.24794 -1.42763 70.0589 -2.61598 16.4969 -94.7479 -4.44274 -4.68843 120.092 75.5343 58.4939 -26.1133 -13.7787 -2.93326 -167.277 84.4999 48.8109 168.609 16.6984 5.3122 -1.28417e-005 46.555 4.64656e-005 -103.643 -1.33591 0.591999 -5.70665e-008 -2.19007 -2.84048e-007 14.353 1.94716 15.373 -72.0648 39.0385 39.3397 33.3638 2.10362 14.835 0.588947 0.308273 6.35287 -99.6409 81.413 100.35 -0.018141 2.77389e-005 -0.117315 -0.124139 0.00241106 -0.799296 -79.8382 79.5773 80.5374 -0.000225805 -0.000220965 2.21901e-005 -0.000956265 0.000122837 -2.73266e-005 -66.7416 80.4058 67.2171 -0.00043716 1.59048e-005 -2.7322e-005 -0.000136641 -0.000109347 -5.46432e-005 -6.42159 81.2158 8.01779 -0.000218586 1.68714e-005 0.000212148 0.000901557 -0.000184852 -0.000218556 -59.9282 75.5373 58.5147 -20.0771 -16.3046 -4.59618 -167.277 84.4999 48.8109 -147.413 13.5645 15.0327 -1.89428e-005 35.0732 4.50765e-005 -100.199 17.3412 0.62833 -1.09997e-005 25.7569 5.62941e-006 8.71409 3.83154 47.404 -72.0648 39.0385 39.3397 33.3638 2.10361 14.835 0.588946 0.308273 6.35287 -99.6409 81.413 100.35 -0.0181409 3.00824e-005 -0.117315 -0.124139 0.00241114 -0.799296 -79.8382 79.5773 80.5374 -0.000260646 -0.000218562 2.35683e-005 -0.000956226 0.000123002 -2.73236e-005 -66.7416 80.4058 67.2171 -0.000437132 1.48855e-005 -2.73229e-005 -0.000136604 -0.000109277 -5.46445e-005 -6.42159 81.2158 8.01779 -0.000218567 1.95829e-005 0.000212294 0.000901583 -0.00019124 -0.00021857 0.000811311 0.56661 89.91 -25.738 -29.7787 -43.3885 -9.92773e-006 -24.8261 -2.25162e-006 70.0292 20.8566 -0.00869478 7.12271e-007 31.17 8.16789e-007 -67.7533 28.1553 -16.5371 -35.4947 1.09293e-006 1.41094e-007 -180 -0.566579 -90.09 -22.9696 -17.0051 -26.7398 -4.29593e-006 -11.8242 -4.97929e-007 70.0646 10.6307 3.84817 6.13315e-007 15.8653 1.00662e-006 -81.4612 16.947 -8.1516 -35.4947 3.44863e-008 -1.10659e-007 
56.6266 162.292 -11.453 103.34 6.15756 87.0384 -180 4.29621e-031 -90 0.922764 0.632115 -0.663004 1.85294 1.25299 -1.33622 1.85294 1.25343 -1.33624 69.5369 -2.35731 16.4115 -94.2456 -4.09883 -4.61395 120.092 75.5343 58.4939 -26.1064 -13.6689 -2.8665 -167.277 84.4999 48.8109 168.241 16.7913 5.20365 -1.30165e-005 46.7028 4.65926e-005 -103.424 -1.12092 0.592503 -5.54887e-008 -1.87198 -2.83992e-007 13.8195 1.81088 14.8604 -72.0648 39.0385 39.3397 33.3638 2.10362 14.835 0.588947 0.308273 6.35287 -99.6409 81.413 100.35 -0.018141 2.77389e-005 -0.117315 -0.124139 0.00241106 -0.799296 -79.8382 79.5773 80.5374 -0.000225805 -0.000220965 2.21901e-005 -0.000956265 0.000122837 -2.73266e-005 -66.7416 80.4058 67.2171 -0.00043716 1.59048e-005 -2.7322e-005 -0.000136641 -0.000109347 -5.46432e-005 -6.42159 81.2158 8.01779 -0.000218586 1.68714e-005 0.000212148 0.000901557 -0.000184852 -0.000218556 -59.9282 75.5373 58.5147 -20.0482 -16.1096 -4.48999 -167.277 84.4999 48.8109 -147.406 13.5853 15.0919 -1.89198e-005 35.0492 4.50633e-005 -100.08 17.4334 0.628879 -1.10145e-005 25.8929 5.63588e-006 8.45371 3.70292 47.2472 -72.0648 39.0385 39.3397 33.3638 2.10361 14.835 0.588946 0.308273 6.35287 -99.6409 81.413 100.35 -0.0181409 3.00824e-005 -0.117315 -0.124139 0.00241114 -0.799296 -79.8382 79.5773 80.5374 -0.000260646 -0.000218562 2.35683e-005 -0.000956226 0.000123002 -2.73236e-005 -66.7416 80.4058 67.2171 -0.000437132 1.48855e-005 -2.73229e-005 -0.000136604 -0.000109277 -5.46445e-005 -6.42159 81.2158 8.01779 -0.000218567 1.95829e-005 0.000212294 0.000901583 -0.00019124 -0.00021857 0.000811311 0.56661 89.91 -26.2037 -29.5478 -43.5817 -9.91966e-006 -24.6393 -2.24824e-006 70.0482 20.6756 -0.00867418 7.1678e-007 30.8986 8.14464e-007 -67.9261 27.8582 -16.3171 -35.4947 2.07062e-006 1.54153e-007 -180 -0.566579 -90.09 -23.0659 -16.801 -26.1021 -4.29648e-006 -11.8867 -4.98043e-007 70.0058 10.5378 3.7189 6.15906e-007 15.7233 1.00592e-006 -81.5324 16.883 -8.11546 -35.4947 3.34737e-008 -1.26074e-007 
56.556 162.313 -11.403 103.156 6.02405 87.3204 -180 4.29621e-031 -90 0.885498 0.63964 -0.616054 1.77798 1.26921 -1.24203 1.77798 1.26964 -1.24205 69.2354 -2.26468 16.1892 -93.8286 -4.03207 -4.46762 120.092 75.5343 58.4939 -26.1139 -13.5738 -2.80798 -167.277 84.4999 48.8109 168.093 16.8386 5.03939 -1.31363e-005 46.8036 4.66799e-005 -103.278 -0.8832 0.592823 -5.37351e-008 -1.51831 -2.8394e-007 13.2916 1.69618 14.4812 -72.0648 39.0385 39.3397 33.3638 2.10362 14.835 0.588947 0.308273 6.35287 -99.6409 81.413 100.35 -0.018141 2.77389e-005 -0.117315 -0.124139 0.00241106 -0.799296 -79.8382 79.5773 80.5374 -0.000225805 -0.000220965 2.21901e-005 -0.000956265 0.000122837 -2.73266e-005 -66.7416 80.4058 67.2171 -0.00043716 1.59048e-005 -2.7322e-005 -0.000136641 -0.000109347 -5.46432e-005 -6.42159 81.2158 8.01779 -0.000218586 1.68714e-005 0.000212148 0.000901557 -0.000184852 -0.000218556 -59.9282 75.5373 58.5147 -19.9977 -15.8306 -4.3387 -167.277 84.4999 48.8109 -147.411 13.5876 15.1146 -1.89031e-005 35.0319 4.50537e-005 -100.036 17.4313 0.628966 -1.10141e-005 25.8888 5.63569e-006 8.40603 3.67149 47.1273 -72.0648 39.0385 39.3397 33.3638 2.10361 14.835 0.588946 0.308273 6.35287 -99.6409 81.413 100.35 -0.0181409 3.00824e-005 -0.117315 -0.124139 0.00241114 -0.799296 -79.8382 79.5773 80.5374 -0.000260646 -0.000218562 2.35683e-005 -0.000956226 0.000123002 -2.73236e-005 -66.7416 80.4058 67.2171 -0.000437132 1.48855e-005 -2.73229e-005 -0.000136604 -0.000109277 -5.46445e-005 -6.42159 81.2158 8.01779 -0.000218567 1.95829e-005 0.000212294 0.000901583 -0.00019124 -0.00021857 0.000811311 0.56661 89.91 -26.5804 -29.2416 -43.6139 -9.90751e-006 -24.3573 -2.2432e-006 70.076 20.4137 -0.00864874 7.23263e-007 30.5057 8.11154e-007 -68.2009 27.6139 -16.1 -35.4947 2.27422e-006 1.73482e-007 -180 -0.566579 -90.09 -23.1288 -16.492 -25.3403 -4.29605e-006 -11.8376 -4.97953e-007 69.9431 10.3048 3.55195 6.22332e-007 15.3704 1.00419e-006 -81.6363 16.6079 -7.98927 -35.4947 3.30109e-008 -1.50403e-007 
